<?xml version="1.0" encoding="UTF-8" standalone="no"?>
<!DOCTYPE svg PUBLIC "-//W3C//DTD SVG 1.1//EN"
 "http://www.w3.org/Graphics/SVG/1.1/DTD/svg11.dtd">
<!-- Generated by graphviz version 2.26.3 (20100126.1600)
 -->
<!-- Title: list_and_list_node Pages: 1 -->
<svg width="674pt" height="190pt"
 viewBox="0.00 0.00 674.00 190.00" xmlns="http://www.w3.org/2000/svg" xmlns:xlink="http://www.w3.org/1999/xlink">
<g id="graph1" class="graph" transform="scale(1 1) rotate(0) translate(4 186)">
<title>list_and_list_node</title>
<polygon fill="white" stroke="white" points="-4,5 -4,-186 671,-186 671,5 -4,5"/>
<!-- list_node_1 -->
<g id="node1" class="node"><title>list_node_1</title>
<polygon fill="#95bbe3" stroke="black" points="144.5,-70 144.5,-122 293.5,-122 293.5,-70 144.5,-70"/>
<text text-anchor="middle" x="219" y="-105.4" font-family="'/usr/share/fonts/truetype/wqy/wqy-microhei.ttc'" font-size="14.00">listNode</text>
<polyline fill="none" stroke="black" points="144.5,-96 293.5,-96 "/>
<text text-anchor="middle" x="168" y="-79.4" font-family="'/usr/share/fonts/truetype/wqy/wqy-microhei.ttc'" font-size="14.00">prev</text>
<polyline fill="none" stroke="black" points="191.5,-70 191.5,-96 "/>
<text text-anchor="middle" x="218.5" y="-79.4" font-family="'/usr/share/fonts/truetype/wqy/wqy-microhei.ttc'" font-size="14.00">value</text>
<polyline fill="none" stroke="black" points="245.5,-70 245.5,-96 "/>
<text text-anchor="middle" x="269.5" y="-79.4" font-family="'/usr/share/fonts/truetype/wqy/wqy-microhei.ttc'" font-size="14.00">next</text>
</g>
<!-- list_node_2 -->
<g id="node2" class="node"><title>list_node_2</title>
<polygon fill="#95bbe3" stroke="black" points="330.5,-70 330.5,-122 479.5,-122 479.5,-70 330.5,-70"/>
<text text-anchor="middle" x="405" y="-105.4" font-family="'/usr/share/fonts/truetype/wqy/wqy-microhei.ttc'" font-size="14.00">listNode</text>
<polyline fill="none" stroke="black" points="330.5,-96 479.5,-96 "/>
<text text-anchor="middle" x="354" y="-79.4" font-family="'/usr/share/fonts/truetype/wqy/wqy-microhei.ttc'" font-size="14.00">prev</text>
<polyline fill="none" stroke="black" points="377.5,-70 377.5,-96 "/>
<text text-anchor="middle" x="404.5" y="-79.4" font-family="'/usr/share/fonts/truetype/wqy/wqy-microhei.ttc'" font-size="14.00">value</text>
<polyline fill="none" stroke="black" points="431.5,-70 431.5,-96 "/>
<text text-anchor="middle" x="455.5" y="-79.4" font-family="'/usr/share/fonts/truetype/wqy/wqy-microhei.ttc'" font-size="14.00">next</text>
</g>
<!-- list_node_1&#45;&gt;list_node_2 -->
<g id="edge2" class="edge"><title>list_node_1:next&#45;&gt;list_node_2:head</title>
<path fill="none" stroke="black" stroke-width="2" d="M294,-83C309.573,-83 310.696,-99.1881 320.173,-106.017"/>
<polygon fill="black" stroke="black" points="319.415,-109.445 330,-109 321.447,-102.747 319.415,-109.445"/>
</g>
<!-- list_node_2&#45;&gt;list_node_1 -->
<g id="edge6" class="edge"><title>list_node_2:prev&#45;&gt;list_node_1:head</title>
<path fill="none" stroke="black" stroke-width="2" d="M330,-83C314.427,-83 313.304,-99.1881 303.827,-106.017"/>
<polygon fill="black" stroke="black" points="302.553,-102.747 294,-109 304.585,-109.445 302.553,-102.747"/>
</g>
<!-- list_node_3 -->
<g id="node3" class="node"><title>list_node_3</title>
<polygon fill="#95bbe3" stroke="black" points="516.5,-96 516.5,-148 665.5,-148 665.5,-96 516.5,-96"/>
<text text-anchor="middle" x="591" y="-131.4" font-family="'/usr/share/fonts/truetype/wqy/wqy-microhei.ttc'" font-size="14.00">listNode</text>
<polyline fill="none" stroke="black" points="516.5,-122 665.5,-122 "/>
<text text-anchor="middle" x="540" y="-105.4" font-family="'/usr/share/fonts/truetype/wqy/wqy-microhei.ttc'" font-size="14.00">prev</text>
<polyline fill="none" stroke="black" points="563.5,-96 563.5,-122 "/>
<text text-anchor="middle" x="590.5" y="-105.4" font-family="'/usr/share/fonts/truetype/wqy/wqy-microhei.ttc'" font-size="14.00">value</text>
<polyline fill="none" stroke="black" points="617.5,-96 617.5,-122 "/>
<text text-anchor="middle" x="641.5" y="-105.4" font-family="'/usr/share/fonts/truetype/wqy/wqy-microhei.ttc'" font-size="14.00">next</text>
</g>
<!-- list_node_2&#45;&gt;list_node_3 -->
<g id="edge4" class="edge"><title>list_node_2:next&#45;&gt;list_node_3:head</title>
<path fill="none" stroke="black" stroke-width="2" d="M480,-83C503.937,-83 492.828,-120.708 506.361,-131.903"/>
<polygon fill="black" stroke="black" points="505.409,-135.273 516,-135 507.55,-128.609 505.409,-135.273"/>
</g>
<!-- list_node_3&#45;&gt;list_node_2 -->
<g id="edge8" class="edge"><title>list_node_3:prev&#45;&gt;list_node_2:head</title>
<path fill="none" stroke="black" stroke-width="2" d="M516,-109C504,-109 498.75,-109 490.125,-109"/>
<polygon fill="black" stroke="black" points="490,-105.5 480,-109 490,-112.5 490,-105.5"/>
</g>
<!-- list -->
<g id="node8" class="node"><title>list</title>
<polygon fill="#a8e270" stroke="black" points="0,-0 0,-182 108,-182 108,-0 0,-0"/>
<text text-anchor="middle" x="54" y="-165.4" font-family="'/usr/share/fonts/truetype/wqy/wqy-microhei.ttc'" font-size="14.00">list</text>
<polyline fill="none" stroke="black" points="0,-156 108,-156 "/>
<text text-anchor="middle" x="54" y="-139.4" font-family="'/usr/share/fonts/truetype/wqy/wqy-microhei.ttc'" font-size="14.00">head</text>
<polyline fill="none" stroke="black" points="0,-130 108,-130 "/>
<text text-anchor="middle" x="54" y="-113.4" font-family="'/usr/share/fonts/truetype/wqy/wqy-microhei.ttc'" font-size="14.00">tail</text>
<polyline fill="none" stroke="black" points="0,-104 108,-104 "/>
<text text-anchor="middle" x="54" y="-87.4" font-family="'/usr/share/fonts/truetype/wqy/wqy-microhei.ttc'" font-size="14.00">dup</text>
<polyline fill="none" stroke="black" points="0,-78 108,-78 "/>
<text text-anchor="middle" x="54" y="-61.4" font-family="'/usr/share/fonts/truetype/wqy/wqy-microhei.ttc'" font-size="14.00">free</text>
<polyline fill="none" stroke="black" points="0,-52 108,-52 "/>
<text text-anchor="middle" x="54" y="-35.4" font-family="'/usr/share/fonts/truetype/wqy/wqy-microhei.ttc'" font-size="14.00">match</text>
<polyline fill="none" stroke="black" points="0,-26 108,-26 "/>
<text text-anchor="middle" x="54" y="-9.4" font-family="'/usr/share/fonts/truetype/wqy/wqy-microhei.ttc'" font-size="14.00">len</text>
</g>
<!-- list&#45;&gt;list_node_1 -->
<g id="edge12" class="edge"><title>list:head&#45;&gt;list_node_1:head</title>
<path fill="none" stroke="black" stroke-width="2" d="M108,-143C125.881,-143 123.943,-120.555 134.391,-112.138"/>
<polygon fill="black" stroke="black" points="135.58,-115.431 144,-109 133.408,-108.777 135.58,-115.431"/>
</g>
<!-- list&#45;&gt;list_node_3 -->
<g id="edge10" class="edge"><title>list:tail&#45;&gt;list_node_3:head</title>
<path fill="none" stroke="black" stroke-width="2" d="M108,-117C125.167,-117 127.144,-127.744 144,-131 303.012,-161.717 348.79,-136.097 505.978,-135.034"/>
<polygon fill="black" stroke="black" points="506.012,-138.534 516,-135 505.988,-131.534 506.012,-138.534"/>
</g>
</g>
</svg>
