<?xml version="1.0" encoding="UTF-8" standalone="no"?>
<!DOCTYPE svg PUBLIC "-//W3C//DTD SVG 1.1//EN"
 "http://www.w3.org/Graphics/SVG/1.1/DTD/svg11.dtd">
<!-- Generated by graphviz version 2.26.3 (20100126.1600)
 -->
<!-- Title: redis_set Pages: 1 -->
<svg width="402pt" height="202pt"
 viewBox="0.00 0.00 402.00 202.00" xmlns="http://www.w3.org/2000/svg" xmlns:xlink="http://www.w3.org/1999/xlink">
<g id="graph1" class="graph" transform="scale(1 1) rotate(0) translate(4 198)">
<title>redis_set</title>
<polygon fill="white" stroke="white" points="-4,5 -4,-198 399,-198 399,5 -4,5"/>
<!-- REDIS_SET -->
<g id="node1" class="node"><title>REDIS_SET</title>
<polygon fill="#95bbe3" stroke="#95bbe3" points="252,-194 158,-194 158,-152 252,-152 252,-194"/>
<text text-anchor="middle" x="205" y="-177.4" font-family="'/usr/share/fonts/truetype/wqy/wqy-microhei.ttc'" font-size="14.00">集合</text>
<text text-anchor="middle" x="205" y="-161.4" font-family="'/usr/share/fonts/truetype/wqy/wqy-microhei.ttc'" font-size="14.00">REDIS_SET</text>
</g>
<!-- REDIS_ENCODING_INTSET -->
<g id="node2" class="node"><title>REDIS_ENCODING_INTSET</title>
<polygon fill="#fadcad" stroke="#fadcad" points="204,-116 9.9476e-14,-116 0,-72 204,-72 204,-116"/>
<text text-anchor="middle" x="102" y="-99.4" font-family="'/usr/share/fonts/truetype/wqy/wqy-microhei.ttc'" font-size="14.00">intset</text>
<text text-anchor="middle" x="102" y="-81.4" font-family="'/usr/share/fonts/truetype/wqy/wqy-microhei.ttc'" font-size="14.00">REDIS_ENCODING_INTSET</text>
</g>
<!-- REDIS_SET&#45;&gt;REDIS_ENCODING_INTSET -->
<g id="edge2" class="edge"><title>REDIS_SET&#45;&gt;REDIS_ENCODING_INTSET</title>
<path fill="none" stroke="black" stroke-width="2" d="M177.398,-151.829C165.568,-142.756 151.577,-132.025 138.88,-122.286"/>
<polygon fill="black" stroke="black" points="140.822,-119.366 130.758,-116.057 136.562,-124.92 140.822,-119.366"/>
</g>
<!-- REDIS_ENCODING_HT -->
<g id="node3" class="node"><title>REDIS_ENCODING_HT</title>
<polygon fill="#fadcad" stroke="#fadcad" points="394,-115 222,-115 222,-73 394,-73 394,-115"/>
<text text-anchor="middle" x="308" y="-98.4" font-family="'/usr/share/fonts/truetype/wqy/wqy-microhei.ttc'" font-size="14.00">字典</text>
<text text-anchor="middle" x="308" y="-82.4" font-family="'/usr/share/fonts/truetype/wqy/wqy-microhei.ttc'" font-size="14.00">REDIS_ENCODING_HT</text>
</g>
<!-- REDIS_SET&#45;&gt;REDIS_ENCODING_HT -->
<g id="edge4" class="edge"><title>REDIS_SET&#45;&gt;REDIS_ENCODING_HT</title>
<path fill="none" stroke="black" stroke-width="2" d="M232.602,-151.829C244.725,-142.531 259.118,-131.492 272.063,-121.564"/>
<polygon fill="black" stroke="black" points="274.517,-124.092 280.322,-115.229 270.257,-118.538 274.517,-124.092"/>
</g>
<!-- intset -->
<g id="node6" class="node"><title>intset</title>
<polygon fill="lightgrey" stroke="lightgrey" points="159,-36 45,-36 45,-1.77636e-14 159,-3.55271e-15 159,-36"/>
<text text-anchor="middle" x="102" y="-14.4" font-family="'/usr/share/fonts/truetype/wqy/wqy-microhei.ttc'" font-size="14.00">intset.h/intset</text>
</g>
<!-- REDIS_ENCODING_INTSET&#45;&gt;intset -->
<g id="edge6" class="edge"><title>REDIS_ENCODING_INTSET&#45;&gt;intset</title>
<path fill="none" stroke="black" stroke-width="2" d="M102,-71.6086C102,-63.7272 102,-54.7616 102,-46.4482"/>
<polygon fill="black" stroke="black" points="105.5,-46.3974 102,-36.3975 98.5001,-46.3975 105.5,-46.3974"/>
</g>
<!-- dict -->
<g id="node8" class="node"><title>dict</title>
<polygon fill="lightgrey" stroke="lightgrey" points="350,-36 266,-36 266,-1.77636e-14 350,-3.55271e-15 350,-36"/>
<text text-anchor="middle" x="308" y="-14.4" font-family="'/usr/share/fonts/truetype/wqy/wqy-microhei.ttc'" font-size="14.00">dict.h/dict</text>
</g>
<!-- REDIS_ENCODING_HT&#45;&gt;dict -->
<g id="edge8" class="edge"><title>REDIS_ENCODING_HT&#45;&gt;dict</title>
<path fill="none" stroke="black" stroke-width="2" d="M308,-72.8298C308,-64.6487 308,-55.1634 308,-46.4057"/>
<polygon fill="black" stroke="black" points="311.5,-46.2205 308,-36.2205 304.5,-46.2205 311.5,-46.2205"/>
</g>
</g>
</svg>
